<?xml version="1.0" standalone="no"?>
<!DOCTYPE svg PUBLIC "-//W3C//DTD SVG 20010904//EN"
 "http://www.w3.org/TR/2001/REC-SVG-20010904/DTD/svg10.dtd">
<svg version="1.0" xmlns="http://www.w3.org/2000/svg"
 width="460.000000pt" height="460.000000pt" viewBox="0 0 460.000000 460.000000"
 preserveAspectRatio="xMidYMid meet">
<metadata>
Created by potrace 1.14, written by Peter Selinger 2001-2017
</metadata>
<g transform="translate(0.000000,460.000000) scale(0.100000,-0.100000)"
fill="#000000" stroke="none">
<path d="M30 3970 l0 -630 172 -2 c126 -2 172 -6 176 -15 2 -9 -9 -13 -36 -13
-23 0 -43 -6 -46 -12 -5 -10 -7 -10 -12 0 -4 9 -40 12 -130 12 l-124 0 0 -40
0 -40 160 0 160 0 0 -24 c0 -13 -6 -27 -12 -30 -10 -5 -10 -7 0 -12 6 -3 12
-17 12 -30 0 -21 -5 -24 -35 -24 -19 0 -35 5 -35 10 0 14 -27 12 -33 -2 -4
-10 -7 -10 -14 -1 -6 8 -44 14 -106 16 l-97 4 0 -1569 0 -1568 225 0 c153 0
225 3 225 11 0 14 25 39 39 39 6 0 11 4 11 9 0 5 18 11 40 15 22 3 40 11 40
16 0 6 9 10 21 10 11 0 27 7 35 15 9 8 26 15 40 15 13 0 24 5 24 10 0 6 12 10
26 10 14 0 35 5 46 11 11 6 50 12 86 13 42 1 67 6 70 14 2 7 22 12 52 12 26 0
64 7 83 15 20 8 55 15 77 15 22 0 40 5 40 10 0 6 22 10 48 10 27 0 57 6 68 15
10 8 34 15 52 15 17 0 32 5 32 10 0 6 10 10 21 10 13 0 41 20 69 49 25 27 56
52 68 55 12 4 22 12 22 17 0 5 7 9 15 9 8 0 15 5 15 10 0 6 5 10 10 10 13 0
13 -37 0 -42 -5 -1 -11 -14 -12 -28 -3 -21 2 -26 25 -28 25 -3 40 -22 17 -22
-26 0 -5 -33 35 -56 26 -14 35 -94 11 -94 -9 0 -16 -7 -16 -15 0 -8 -5 -15
-11 -15 -17 0 -39 -27 -39 -47 1 -35 27 -55 70 -55 38 1 40 -1 34 -24 l-6 -24
876 0 c772 0 876 2 876 15 0 8 -4 15 -10 15 -5 0 -10 5 -10 10 0 6 20 10 45
10 25 0 45 5 45 10 0 6 7 10 15 10 8 0 15 7 15 15 0 8 3 15 8 15 4 0 13 10 21
21 10 17 10 23 1 29 -19 11 -2 30 26 30 13 0 24 3 24 8 0 4 16 16 35 26 27 15
35 25 35 48 0 27 30 68 50 68 13 0 50 37 50 50 0 16 32 63 57 83 13 10 23 25
23 33 0 8 5 14 10 14 6 0 10 8 10 19 0 10 11 27 25 37 18 13 25 28 25 52 0 20
6 35 15 38 8 4 15 12 15 20 0 8 5 14 10 14 6 0 10 -6 10 -14 0 -7 7 -19 15
-26 23 -19 18 -40 -10 -40 -24 0 -25 -2 -25 -65 0 -63 1 -65 25 -65 23 0 25 3
25 50 0 28 5 50 10 50 6 0 10 9 10 19 0 26 10 51 21 51 5 0 9 -37 9 -81 0 -74
-2 -84 -25 -105 -25 -23 -36 -84 -15 -84 6 0 10 -11 10 -25 0 -16 6 -25 15
-25 9 0 15 9 15 25 0 14 5 25 10 25 6 0 10 16 10 35 0 21 6 38 18 45 12 8 13
13 5 16 -8 3 -13 22 -12 42 l1 37 11 -27 c6 -16 14 -28 19 -28 4 0 8 -9 8 -20
0 -11 -4 -20 -10 -20 -5 0 -10 -23 -10 -51 0 -49 -15 -79 -39 -79 -17 0 -14
-119 3 -136 27 -27 36 -15 36 45 0 43 4 60 15 65 11 4 15 21 15 66 0 33 4 60
10 60 16 0 13 -227 -2 -233 -8 -2 -13 -21 -12 -50 1 -33 -3 -47 -13 -47 -7 0
-13 -5 -13 -11 0 -6 -7 -17 -15 -25 -8 -9 -15 -26 -15 -40 l0 -24 140 0 c118
0 140 2 140 15 0 8 -4 15 -10 15 -5 0 -10 5 -10 10 0 6 11 10 25 10 14 0 25
-5 25 -11 0 -23 30 -39 74 -39 l46 0 0 1680 0 1680 -35 0 c-32 0 -35 3 -35 29
0 16 -7 34 -15 41 -8 7 -15 23 -15 36 0 13 -4 24 -10 24 -5 0 -10 23 -10 50 0
28 -4 50 -9 50 -5 0 -13 10 -17 22 -9 28 -24 43 -52 52 -12 4 -22 12 -22 17 0
5 -18 9 -40 9 -22 0 -40 5 -40 10 0 6 -12 10 -27 10 -73 0 -73 1 -73 127 l0
114 40 38 c22 21 40 44 40 52 0 16 -48 59 -67 59 -7 0 -13 5 -13 10 0 6 -45
10 -114 10 -82 0 -116 4 -119 13 -4 9 -7 9 -14 0 -10 -14 -133 -15 -133 -2 0
5 -16 11 -35 15 l-35 6 0 70 c0 48 -5 74 -15 84 -8 9 -15 29 -15 45 0 16 -4
29 -10 29 -5 0 -10 12 -10 28 0 15 -7 40 -15 56 -8 15 -15 53 -15 82 l0 54
-1805 0 -1805 0 0 -630z m678 540 c2 -5 22 -10 44 -10 35 0 39 -2 33 -20 -4
-12 -2 -27 5 -35 7 -9 8 -15 0 -20 -5 -3 -10 -15 -10 -26 0 -10 -4 -19 -10
-19 -5 0 -10 -8 -10 -19 0 -10 -7 -24 -15 -31 -8 -7 -15 -19 -15 -26 0 -8 -4
-14 -10 -14 -5 0 -10 -6 -10 -14 0 -17 -32 -80 -42 -84 -5 -2 -8 -19 -8 -38 0
-24 -5 -34 -15 -34 -8 0 -15 -7 -15 -15 0 -8 -4 -15 -10 -15 -5 0 -10 -17 -10
-37 0 -77 -6 -83 -71 -83 l-59 0 0 40 c0 40 -15 54 -26 25 -4 -10 -20 -15 -49
-15 -41 0 -43 1 -49 38 -3 20 -6 72 -6 115 0 44 -4 77 -10 77 -6 0 -10 43 -10
109 l0 108 43 17 c23 9 57 16 75 16 21 0 32 5 32 14 0 12 19 14 112 10 63 -2
114 -8 116 -14z m3246 -549 c3 -5 -10 -12 -29 -15 -19 -4 -35 -11 -35 -16 0
-6 -7 -10 -15 -10 -15 0 -21 31 -8 43 10 10 81 8 87 -2z m-194 -31 c0 -5 7
-10 15 -10 8 0 15 -4 15 -9 0 -13 -37 -20 -68 -12 -26 8 -26 8 -4 15 12 4 22
12 22 17 0 5 5 9 10 9 6 0 10 -4 10 -10z m-3200 -65 c0 -26 -14 -31 -39 -16
-12 8 -12 11 0 25 21 23 39 19 39 -9z m3410 -34 c0 -5 9 -11 21 -14 12 -3 18
-10 14 -16 -4 -7 -62 -11 -161 -11 -130 0 -154 2 -154 15 0 11 12 15 50 15 28
0 50 5 50 10 0 6 37 10 90 10 50 0 90 -4 90 -9z m-1850 -305 c0 -8 -6 -16 -12
-19 -28 -10 3 -18 68 -18 41 -1 70 4 72 10 2 6 10 11 18 11 19 0 18 -37 -2
-48 -26 -15 -9 -29 30 -24 39 5 44 13 21 36 -17 17 -20 36 -4 36 29 0 54 -63
28 -72 -6 -2 -12 -24 -15 -48 -2 -25 -9 -46 -14 -48 -6 -2 -10 -14 -10 -27 0
-17 7 -25 27 -30 27 -6 27 -7 8 -21 -19 -14 -19 -16 -2 -25 28 -16 21 -47 -14
-54 -16 -4 -44 -20 -61 -36 l-30 -30 23 -20 c12 -10 28 -19 36 -19 7 0 13 -9
13 -20 0 -11 4 -20 9 -20 6 0 11 -19 13 -42 2 -35 7 -43 23 -44 59 -3 79 -6
68 -11 -30 -12 5 -63 44 -63 31 0 30 -16 -2 -24 -14 -4 -25 -11 -25 -16 0 -6
-7 -10 -15 -10 -8 0 -15 -4 -15 -10 0 -5 -11 -10 -24 -10 -14 0 -31 -7 -40
-15 -8 -8 -24 -15 -35 -15 -12 0 -21 -4 -21 -9 0 -5 -13 -12 -30 -16 -16 -4
-30 -11 -30 -16 0 -5 -22 -9 -50 -9 -27 0 -50 -4 -50 -10 0 -5 -11 -10 -25
-10 -14 0 -25 5 -25 10 0 6 -16 10 -35 10 -33 0 -35 2 -35 33 0 18 -6 39 -12
46 -10 11 -10 14 -1 18 8 3 11 14 7 29 -5 21 -3 24 20 24 21 0 26 -5 26 -25 0
-16 6 -25 15 -25 11 0 15 11 15 40 0 35 -3 40 -23 40 -12 0 -29 9 -37 20 -10
14 -26 20 -55 20 -70 0 -85 8 -85 46 0 19 -4 34 -10 34 -5 0 -10 7 -10 15 0 8
-7 15 -15 15 -8 0 -15 5 -15 10 0 6 7 10 15 10 8 0 15 6 15 14 0 8 -7 21 -15
30 -20 20 -19 56 1 56 12 0 14 7 9 29 -4 19 -1 34 9 44 19 18 22 103 4 109
-14 5 -15 67 -1 76 6 4 12 16 14 27 3 14 13 21 37 23 17 2 32 7 32 12 0 5 32
12 70 16 39 3 70 11 70 15 0 5 9 9 20 9 11 0 20 -6 20 -14z m-380 -306 c0 -5
-4 -10 -10 -10 -5 0 -10 5 -10 10 0 6 5 10 10 10 6 0 10 -4 10 -10z m51 -97
c9 -50 5 -93 -7 -93 -10 0 -14 12 -14 40 0 22 -4 40 -10 40 -5 0 -10 5 -10 10
0 11 39 14 41 3z m-51 -53 c0 -5 -4 -10 -10 -10 -5 0 -10 5 -10 10 0 6 5 10
10 10 6 0 10 -4 10 -10z m80 -100 c0 -5 -4 -10 -10 -10 -5 0 -10 5 -10 10 0 6
5 10 10 10 6 0 10 -4 10 -10z m1945 -30 c-3 -5 -15 -10 -26 -10 -10 0 -19 5
-19 10 0 6 12 10 26 10 14 0 23 -4 19 -10z m-1967 -57 c4 -26 -12 -30 -34 -9
-21 22 -17 38 9 34 14 -2 23 -11 25 -25z m-208 -113 c0 -5 -4 -10 -10 -10 -5
0 -10 5 -10 10 0 6 5 10 10 10 6 0 10 -4 10 -10z m-810 -190 c0 -27 -4 -50
-10 -50 -5 0 -10 7 -10 15 0 8 -7 15 -15 15 -8 0 -15 5 -15 10 0 16 -40 12
-46 -5 -7 -17 -24 -20 -24 -5 0 24 56 68 88 69 32 1 32 1 32 -49z m3098 -9
c11 -7 10 -10 -3 -15 -20 -7 -38 1 -30 15 7 11 16 11 33 0z m-1064 -7 c20 -8
21 -34 1 -34 -8 0 -15 -7 -15 -15 0 -8 -4 -15 -10 -15 -5 0 -10 16 -10 35 0
35 5 40 34 29z m-314 -35 c0 -23 30 -79 42 -79 4 0 8 -4 8 -10 0 -6 -27 -10
-60 -10 -57 0 -60 1 -60 25 0 14 5 25 10 25 6 0 10 7 10 15 0 15 29 53 43 54
4 1 7 -8 7 -20z m150 11 c0 -5 -4 -10 -10 -10 -5 0 -10 5 -10 10 0 6 5 10 10
10 6 0 10 -4 10 -10z m1210 -40 c0 -13 -7 -20 -20 -20 -11 0 -20 5 -20 10 0 6
7 10 15 10 8 0 15 5 15 10 0 6 2 10 5 10 3 0 5 -9 5 -20z m-1933 -96 c12 -12
18 -43 21 -122 3 -63 9 -110 16 -114 8 -6 6 -11 -4 -18 -8 -5 -10 -10 -4 -10
6 0 14 -29 17 -67 4 -38 11 -69 17 -71 5 -2 10 -15 10 -28 0 -13 5 -24 10 -24
6 0 10 -7 10 -15 0 -8 -6 -15 -14 -15 -22 0 -38 -57 -23 -81 6 -10 17 -19 24
-19 18 0 16 -17 -2 -24 -9 -3 -15 -18 -15 -38 0 -22 -7 -39 -20 -48 -11 -8
-20 -19 -20 -26 0 -14 -74 -37 -78 -24 -2 6 -19 10 -38 10 -19 0 -34 5 -34 10
0 6 -13 10 -30 10 -16 0 -30 -4 -30 -10 0 -25 -19 -6 -28 28 -7 25 -10 30 -11
14 -1 -12 -8 -25 -16 -28 -8 -4 -15 -14 -15 -24 0 -40 -11 -50 -56 -50 -44 0
-44 0 -44 35 0 19 4 35 9 35 5 0 12 11 15 25 4 14 11 25 16 25 6 0 10 7 10 15
0 9 9 15 25 15 14 0 25 5 25 10 0 6 6 10 14 10 13 0 36 74 36 115 0 8 4 15 9
15 5 0 12 11 15 25 4 14 11 25 16 25 6 0 10 7 10 15 0 8 4 15 10 15 5 0 12 11
16 25 3 14 10 25 15 25 5 0 9 38 9 84 0 52 4 86 11 88 6 2 13 25 16 51 3 26
10 47 14 47 5 0 9 7 9 15 0 8 7 15 15 15 10 0 15 11 15 35 0 39 4 42 27 19z
m-687 -94 c0 -22 5 -40 10 -40 6 0 10 -11 10 -25 0 -14 5 -25 10 -25 6 0 10
-4 10 -10 0 -5 -9 -10 -20 -10 -11 0 -20 4 -20 9 0 5 -11 12 -25 15 -14 4 -25
11 -25 16 0 6 -7 10 -15 10 -20 0 -19 35 2 71 11 19 26 29 40 29 20 0 23 -5
23 -40z m150 30 c0 -5 -4 -10 -10 -10 -5 0 -10 5 -10 10 0 6 5 10 10 10 6 0
10 -4 10 -10z m164 -26 c22 -21 20 -31 -6 -38 -44 -11 -58 -7 -58 17 0 13 3
27 7 30 11 12 41 7 57 -9z m1476 -154 c0 -22 -4 -40 -8 -40 -9 0 -28 -55 -36
-108 -4 -23 -1 -39 9 -49 21 -20 20 -109 0 -117 -8 -3 -15 -15 -15 -26 0 -11
-4 -20 -10 -20 -5 0 -10 -7 -10 -15 0 -8 -7 -15 -15 -15 -8 0 -15 -4 -15 -10
0 -5 -7 -10 -15 -10 -8 0 -15 5 -15 10 0 6 -16 10 -35 10 -19 0 -35 -4 -35
-10 0 -5 -11 -10 -25 -10 -14 0 -25 5 -25 10 0 6 -18 10 -40 10 -22 0 -40 4
-40 9 0 5 -15 12 -33 15 -18 3 -39 15 -47 26 -8 11 -18 20 -23 20 -19 0 -77
68 -71 84 7 18 74 23 74 6 0 -14 36 -12 60 2 16 10 24 10 40 0 28 -17 30 -16
30 22 0 37 15 46 83 46 35 0 48 12 28 25 -10 6 15 63 34 78 6 6 6 10 -2 14
-18 7 -16 33 1 33 8 0 17 6 20 13 5 10 7 10 12 0 8 -18 41 -16 48 2 3 8 17 15
31 15 14 0 25 5 25 10 0 6 5 10 10 10 6 0 10 -18 10 -40z m-2200 -300 c0 -22
-4 -40 -10 -40 -5 0 -10 18 -10 40 0 22 5 40 10 40 6 0 10 -18 10 -40z m380
16 c0 -20 65 -56 101 -56 16 0 29 -4 29 -10 0 -14 47 -13 52 2 2 6 19 -3 38
-22 21 -21 30 -35 22 -38 -22 -7 -42 -33 -42 -53 0 -24 -18 -44 -48 -53 -12
-4 -22 -12 -22 -17 0 -5 -11 -9 -24 -9 -13 0 -26 -7 -30 -15 -3 -9 -18 -15
-40 -15 -19 0 -37 -6 -40 -12 -5 -10 -7 -10 -12 0 -3 7 -25 12 -55 12 -37 0
-49 4 -49 15 0 8 -7 15 -15 15 -8 0 -15 4 -15 9 0 5 -10 11 -22 13 -27 4 -37
37 -14 50 9 5 16 18 16 28 0 15 7 20 25 20 14 0 25 -4 25 -10 0 -16 37 -11 44
6 3 9 6 36 6 60 0 24 5 44 10 44 6 0 10 7 10 15 0 8 7 15 15 15 8 0 15 5 15
10 0 6 5 10 10 10 6 0 10 -6 10 -14z m960 -46 c0 -6 21 -9 49 -8 47 2 81 -15
81 -41 0 -6 5 -11 10 -11 6 0 10 -5 10 -11 0 -16 -26 -39 -45 -39 -9 0 -26
-11 -39 -25 -25 -27 -69 -33 -90 -12 -22 21 -29 83 -11 100 8 9 15 25 15 36 0
12 5 21 10 21 6 0 10 -5 10 -10z m-1290 -114 c0 -14 7 -31 15 -40 17 -16 20
-56 5 -56 -5 0 -10 7 -10 15 0 9 -7 18 -15 21 -17 7 -22 84 -5 84 6 0 10 -11
10 -24z m1658 -553 c12 -12 13 -18 4 -21 -6 -2 -12 -10 -12 -18 0 -8 -6 -14
-14 -14 -8 0 -16 -5 -18 -12 -2 -6 -18 -11 -36 -11 -20 0 -32 -5 -32 -14 0 -7
-7 -13 -15 -13 -8 0 -15 -4 -15 -10 0 -5 -6 -10 -14 -10 -8 0 -22 -7 -30 -16
-10 -9 -24 -13 -36 -9 -13 4 -20 2 -20 -7 0 -21 -85 -40 -198 -45 -83 -3 -105
-1 -118 11 -9 9 -32 16 -55 16 -21 0 -39 5 -39 10 0 6 -16 10 -35 10 -31 0
-35 3 -35 25 0 14 -4 25 -10 25 -5 0 -10 7 -10 16 0 11 6 14 20 9 13 -4 22 -1
26 9 6 17 40 22 46 7 2 -4 13 -12 26 -15 15 -5 24 -3 28 8 8 20 150 23 156 4
3 -8 14 -3 30 15 20 22 34 27 71 27 26 0 48 5 51 13 5 10 7 10 12 0 7 -15 54
-17 54 -3 0 6 33 10 78 10 42 0 84 5 92 10 21 14 29 12 48 -7z m1382 -212 c0
-23 -14 -41 -31 -41 -10 0 -19 4 -19 9 0 5 -3 16 -6 25 -5 13 1 16 25 16 17 0
31 -4 31 -9z m-1966 -53 c5 -10 7 -10 12 0 10 22 34 13 34 -13 0 -20 -5 -25
-26 -25 -26 0 -54 20 -54 39 0 15 27 14 34 -1z m2036 -18 c0 -23 6 -33 25 -42
26 -12 34 -37 13 -39 -10 0 -10 -2 0 -6 6 -2 12 -11 12 -19 0 -8 7 -14 15 -14
24 0 19 -47 -6 -53 -33 -9 -48 2 -55 41 -4 21 -15 44 -25 52 -9 9 -20 37 -24
63 -7 46 -7 47 19 47 22 0 26 -4 26 -30z"/>
<path d="M1870 3400 c0 -5 5 -10 10 -10 6 0 10 5 10 10 0 6 -4 10 -10 10 -5 0
-10 -4 -10 -10z"/>
<path d="M2120 3071 c0 -20 13 -41 21 -35 15 9 10 44 -6 44 -8 0 -15 -4 -15
-9z"/>
<path d="M180 3170 c0 -5 5 -10 10 -10 6 0 10 5 10 10 0 6 -4 10 -10 10 -5 0
-10 -4 -10 -10z"/>
<path d="M270 3170 c0 -5 9 -10 20 -10 11 0 20 5 20 10 0 6 -9 10 -20 10 -11
0 -20 -4 -20 -10z"/>
<path d="M3965 480 c-3 -11 -11 -20 -16 -20 -5 0 -9 -25 -9 -55 0 -41 4 -55
14 -55 8 0 17 -6 20 -12 5 -10 7 -10 12 0 3 6 12 12 20 12 11 0 14 16 14 65 0
51 -3 65 -15 65 -8 0 -15 5 -15 10 0 18 -18 11 -25 -10z"/>
<path d="M3888 366 c-10 -7 -18 -18 -18 -25 0 -6 -7 -11 -15 -11 -24 0 -20
-85 5 -110 11 -11 26 -20 33 -20 22 0 45 37 52 82 6 36 3 47 -17 70 -20 23
-25 25 -40 14z"/>
<path d="M4033 335 c-7 -8 -13 -37 -13 -64 0 -27 -4 -53 -10 -56 -5 -3 -10 -1
-10 4 0 21 -27 11 -53 -19 -27 -30 -39 -100 -17 -100 6 0 10 -7 10 -15 0 -16
18 -20 35 -7 22 15 45 63 45 92 0 25 4 30 25 30 29 0 33 -22 13 -66 -10 -22
-10 -28 0 -32 6 -2 12 -10 12 -18 0 -8 10 -14 23 -14 17 0 25 9 34 37 7 23 8
39 2 41 -5 2 -9 14 -9 27 0 16 -7 25 -25 29 -24 6 -37 46 -15 46 15 0 12 70
-4 86 -18 17 -27 17 -43 -1z"/>
<path d="M1533 317 c-6 -7 -23 -21 -37 -32 -32 -25 -32 -45 -1 -69 14 -11 25
-29 25 -42 0 -19 5 -24 24 -24 14 0 31 7 40 15 8 8 19 15 25 15 6 0 11 5 11
10 0 6 11 10 25 10 18 0 25 5 25 20 0 26 -34 60 -60 60 -15 0 -20 7 -20 25 0
19 -5 25 -22 25 -13 -1 -28 -6 -35 -13z"/>
<path d="M3758 209 c-10 -10 -18 -23 -18 -29 0 -5 -4 -10 -10 -10 -5 0 -10
-11 -10 -25 0 -14 5 -25 10 -25 6 0 10 -9 10 -19 0 -11 8 -22 19 -26 21 -6 51
3 51 16 0 5 7 9 15 9 15 0 21 28 16 79 -4 49 -51 66 -83 30z"/>
<path d="M1240 210 c0 -5 -7 -10 -15 -10 -17 0 -19 -9 -5 -30 6 -10 10 -11 10
-2 0 6 7 12 15 12 8 0 15 6 15 14 0 8 6 17 13 19 6 3 2 6 -10 6 -13 1 -23 -3
-23 -9z"/>
<path d="M1376 165 c-8 -8 -19 -15 -25 -15 -6 0 -11 -11 -11 -25 0 -20 5 -25
24 -25 14 0 31 7 40 15 8 8 19 15 24 15 11 0 23 36 14 44 -11 11 -51 6 -66 -9z"/>
<path d="M1433 85 c-24 -24 -43 -47 -43 -50 0 -3 11 -5 25 -5 14 0 25 5 25 10
0 6 7 10 15 10 8 0 15 7 15 15 0 8 5 15 10 15 6 0 10 11 10 25 0 34 -8 31 -57
-20z"/>
<path d="M756 104 c-9 -22 -8 -24 9 -24 8 0 15 5 15 10 0 6 11 10 25 10 14 0
25 5 25 10 0 17 -67 12 -74 -6z"/>
<path d="M1130 103 c-22 -9 -40 -30 -40 -47 0 -22 13 -20 44 9 37 34 35 53 -4
38z"/>
<path d="M3653 85 c-7 -8 -13 -19 -13 -25 0 -5 -7 -10 -15 -10 -8 0 -15 -7
-15 -15 0 -8 -4 -15 -10 -15 -5 0 -10 -4 -10 -10 0 -6 32 -10 75 -10 73 0 75
1 75 25 0 14 -4 25 -10 25 -5 0 -10 7 -10 15 0 8 -7 15 -15 15 -8 0 -15 5 -15
10 0 15 -23 12 -37 -5z"/>
<path d="M3870 90 c0 -5 -7 -10 -15 -10 -8 0 -15 -7 -15 -15 0 -8 -4 -15 -10
-15 -5 0 -10 -11 -10 -25 0 -24 3 -25 60 -25 57 0 60 1 60 25 0 14 -4 25 -10
25 -5 0 -10 5 -10 11 0 14 -25 39 -39 39 -6 0 -11 -4 -11 -10z"/>
<path d="M4020 90 c0 -5 -7 -10 -15 -10 -11 0 -15 -11 -15 -40 l0 -40 40 0
c36 0 40 3 40 25 0 14 -4 25 -9 25 -5 0 -12 11 -15 25 -6 24 -26 36 -26 15z"/>
<path d="M610 60 c0 -5 16 -10 35 -10 19 0 35 5 35 10 0 6 -16 10 -35 10 -19
0 -35 -4 -35 -10z"/>
<path d="M1228 31 c-23 -23 -23 -31 2 -31 18 0 60 32 60 45 0 12 -47 2 -62
-14z"/>
<path d="M1538 29 c-10 -10 -18 -21 -18 -24 0 -3 23 -5 50 -5 50 0 55 4 44 34
-8 22 -55 19 -76 -5z"/>
</g>
</svg>
